<?xml version="1.0" encoding="UTF-8"?>
<!DOCTYPE svg PUBLIC "-//W3C//DTD SVG 1.1//EN" "http://www.w3.org/Graphics/SVG/1.1/DTD/svg11.dtd">
<!-- Creator: CorelDRAW 2020 (64 Bit) -->
<svg xmlns="http://www.w3.org/2000/svg" xml:space="preserve" width="76.1998mm" height="76.1998mm" version="1.1" style="shape-rendering:geometricPrecision; text-rendering:geometricPrecision; image-rendering:optimizeQuality; fill-rule:evenodd; clip-rule:evenodd"
viewBox="0 0 7619.98 7619.98"
 xmlns:xlink="http://www.w3.org/1999/xlink"
 xmlns:xodm="http://www.corel.com/coreldraw/odm/2003">
 <defs>
  <style type="text/css">
   <![CDATA[
    .fil1 {fill:#00CCFF}
    .fil2 {fill:#333333}
    .fil0 {fill:white}
    .fil3 {fill:#333333;fill-rule:nonzero}
    .fil4 {fill:#4D4D4D;fill-rule:nonzero}
   ]]>
  </style>
    <clipPath id="id0">
     <path d="M-225.66 -49.58l8050.98 0 88.05 7712.84 -8050.98 0 -88.05 -7712.84z"/>
    </clipPath>
 </defs>
 <g id="Camada_x0020_1">
  <metadata id="CorelCorpID_0Corel-Layer"/>
  <g id="_2167557344336">
   <g style="clip-path:url(#id0)">
    <image x="-225.66" y="-49.58" width="8139.03" height="7712.84" xlink:href="ca_Images\ca_ImgID1.png"/>
   </g>
  </g>
  <g id="_2389765085200">
   <path class="fil0" d="M4011.16 2046.31l-0.05 1584.48 373.98 -11.73 -526.68 644.48 609.56 3.2 -3.2 -582.56 799.04 933.23 -912.59 -2571.1 -340.06 0zm1634.57 4056l0 -97.38 110.56 0 -366.37 -1032.22 -717.51 811.91 4.6 73.62 -3.23 0c-0.9,52.32 -10.23,102.21 -28.44,146.69l139.47 0c26.68,0 52.76,4.26 77.29,13.68l0 -13.68 247.5 0 0 99.9c12,-2.67 24.34,-4 36.94,-4 15.87,0 31.53,2.25 46.69,7.05l6.42 0 0 -102.95 247.51 0 0 21.68 104.69 0 0 80.41c18.61,-5.51 37.96,-7.79 57.38,-7.79 12.25,0 24.48,0.95 36.5,3.08zm245.99 125.5l0 448.86 -172.3 0c-4.29,0.74 -8.59,1.36 -12.92,1.89 -6.71,0.83 -13.44,1.37 -20.19,1.37 -9.58,0 -19.05,-1.07 -28.26,-3.26l-12.32 0 0 -3.62c-0.7,-0.26 -1.39,-0.5 -2.09,-0.77 -19.4,8.15 -39.77,11.97 -60.51,11.97 -15.06,0 -29.84,-2.1 -44.02,-6.43l-38.03 3.23c-4.24,0.36 -8.44,0.45 -12.69,0.68 -7.75,0.39 -15.64,0.89 -23.41,0.89 -15.62,0 -31.12,-1.77 -46.08,-5.95l-103.98 0c-6.82,12.77 -14.75,24.77 -23.87,35.91 -38.84,47.4 -89.26,67.04 -142.19,67.04 -42.3,0 -83.3,-13.06 -118.31,-44.23 -18.19,-16.18 -33.2,-36.06 -44.39,-58.72l-124.06 0 0 -13.1c-27.57,10.7 -57.92,13.1 -86.57,13.1l-200.78 0 0 -119.31c-5.43,13.45 -11.83,26.34 -19.35,38.48 -38.47,62.16 -95.27,88.95 -156.2,88.95 -42.34,0 -82.72,-12.74 -116.34,-41.42 -35.68,29.89 -77.75,41.42 -120.54,41.42 -38.63,0 -76.4,-10.17 -108.79,-35.73 -34.09,25.68 -73.42,35.73 -113.4,35.73 -38.86,0 -76.87,-10.26 -109.38,-36.21 -31.44,25.04 -68.12,36.21 -106.26,36.21 -41,0 -79.5,-13.84 -111.17,-42.52 -33.34,29.39 -73.09,42.52 -114.67,42.52 -18.19,0 -35.89,-2.67 -52.76,-8.12l-188.59 0 -11.09 -45.72 -10.65 45.72 -261.73 0 7.19 -28.59c-31.56,25.39 -68.52,36.71 -106.92,36.71 -18.05,0 -35.62,-2.67 -52.32,-8.12l-142.65 0c-13.92,4.03 -28.24,5.95 -42.72,5.95 -62.23,0 -116.8,-34.84 -151.95,-100.76 -6.94,-13.01 -12.81,-26.63 -17.73,-40.74 -8.61,28 -21.37,53.89 -38.91,76.32 -36.78,47.11 -85.53,67.35 -136.9,67.35 -18.05,0 -35.62,-2.67 -52.32,-8.12l-221.77 0c-17.8,5.51 -36.46,8.12 -55.51,8.12 -33.29,0 -65.38,-7.89 -93.92,-25.22l0 17.1 -116.5 0 -51.51 4.38c-4.23,0.36 -8.45,0.45 -12.67,0.68 -7.75,0.39 -15.64,0.89 -23.41,0.89 -15.62,0 -31.09,-1.77 -46.06,-5.95l-346.35 0c-17.8,5.51 -36.45,8.12 -55.5,8.12 -47.61,0 -92.77,-16.15 -128.57,-52.89 -38.21,37.69 -85.24,54.52 -134.92,54.52 -69.52,0 -131.63,-35.32 -171.45,-109.27 -36.61,-67.97 -46.17,-154.51 -46.17,-235.27 0,-81.6 8.86,-171.1 46.38,-239.6 12.21,-22.28 26.48,-40.83 42.37,-55.88 -13.5,-14.84 -26.1,-31.7 -37.68,-50.54 -51.33,-83.49 -70.72,-185.47 -70.72,-290.08 0,-80.65 10.97,-160.26 39.09,-231.04l-78.35 -0.38 0 -3484.69 932.43 -1131.68 3257.19 -17.63 2079.6 5387.45 -1052.88 0zm-2646.33 -1967.47l-502.87 -642.14 349.08 12.09 0.03 -1548.19 -1100.88 0 -356.7 432.92 0 1736.91 1611.34 8.41z"/>
   <polygon class="fil1" points="3141.19,1874.74 3141.19,1065.35 1672.68,1065.35 837.77,2078.67 837.77,5267.82 4630.19,5286.9 4629.37,5556.25 5237.66,4867.91 4629.77,4157.92 4631.51,4474.96 1471.65,4458.43 1471.65,2426.02 1925.87,1874.74 "/>
   <polygon class="fil2" points="3868.34,1863.96 4443.29,1863.96 5927.48,6045.46 6714.01,6045.46 4769.08,1054.57 4443.29,1054.57 3234.46,1054.57 3234.46,1863.96 3234.42,3817.68 3096.96,3812.91 3548.79,4389.87 4020.28,3812.91 3868.3,3817.68 "/>
   <path class="fil3" d="M1154.17 5784.32c-6.2,66.39 -23.3,117.77 -51.23,154.3 -27.92,36.53 -63.98,54.84 -108.13,54.84 -52.93,0 -95.6,-26.4 -128.03,-79.19 -32.46,-52.8 -48.64,-122.4 -48.64,-208.49 0,-89.6 16.52,-161.09 49.47,-214.42 33.02,-53.3 77.22,-79.96 132.54,-79.96 43.85,0 79.74,17.69 107.47,52.94 27.78,35.38 43.62,83.55 47.57,144.67l-87.04 0c-4.27,-26.51 -12.34,-46.51 -24.15,-59.84 -11.9,-13.45 -27.5,-20.12 -46.78,-20.12 -25.91,0 -46.36,15.64 -61.46,46.9 -15.01,31.26 -22.53,74.07 -22.53,128.4 0,53.96 7.12,96 21.37,125.86 14.24,29.84 34.29,44.83 60.09,44.83 20.82,0 37.5,-7.68 49.98,-23.17 12.58,-15.52 20.37,-38.07 23.48,-67.55l86.02 0z"/>
   <path id="_1" class="fil3" d="M1277.51 5773.56c0,37.28 4.53,65.98 13.48,85.98 9.05,20.12 21.81,30.13 38.34,30.13 16.68,0 29.58,-10.13 38.63,-30.25 9.14,-20.11 13.66,-48.82 13.66,-85.86 0,-36.79 -4.52,-65.24 -13.66,-85.23 -9.05,-20.12 -21.95,-30.11 -38.63,-30.11 -16.71,0 -29.52,9.99 -38.41,29.87 -8.97,19.85 -13.41,48.44 -13.41,85.47zm-89.54 -0.26c0,-68.29 12.49,-121.74 37.55,-160.32 24.99,-38.57 59.63,-57.8 103.81,-57.8 44.34,0 79.05,19.23 104.2,57.8 25.08,38.58 37.63,92.03 37.63,160.32 0,68.44 -12.55,121.89 -37.63,160.58 -25.15,38.69 -59.86,58.04 -104.2,58.04 -44.53,0 -79.15,-19.23 -104.07,-57.8 -24.87,-38.58 -37.29,-92.15 -37.29,-160.82z"/>
   <path id="_2" class="fil3" d="M1517.45 5978.08l0 -408.29 85.53 0 0 56.14c9.21,-22.31 20.44,-38.96 33.69,-49.86 13.25,-10.88 29.1,-16.27 47.38,-16.27 31.25,0 53.99,11.91 67.98,35.88 14.02,23.97 20.98,62.93 20.98,117l0 265.4 -87.54 0 0 -205.29c0,-48.05 -2.6,-78.69 -7.89,-91.75 -5.2,-13.22 -14.83,-19.73 -28.91,-19.73 -15.43,0 -26.59,7.82 -33.62,23.43 -7.06,15.64 -10.56,40.62 -10.56,74.84l0 218.5 -87.04 0z"/>
   <path id="_3" class="fil3" d="M1804.68 5650.52l0 -80.73 35.71 0 0 -115.31 87.55 0 0 115.31 44.78 0 0 80.73 -44.78 0 0 176.85c0,27.05 2.27,45 6.86,53.71 4.6,8.83 13.25,13.19 25.83,13.19 2.85,0 4.94,-0.12 6.54,-0.24 1.58,-0.15 3.09,-0.27 4.53,-0.53l0 85.35c-9.15,2.7 -18.13,4.74 -26.92,6.28 -8.82,1.4 -17.29,2.17 -25.41,2.17 -30.35,0 -51.14,-11.26 -62.3,-33.96 -11.13,-22.66 -16.68,-70.87 -16.68,-144.67l0 -158.15 -35.71 0z"/>
   <path id="_4" class="fil3" d="M2012.86 5978.08l0 -408.29 84.06 0 0 71.52c9.31,-28.06 20.98,-48.56 34.9,-61.39 13.92,-12.95 31.6,-19.61 53.06,-20.12l0 132.26c-3.75,-0.77 -7.44,-1.42 -11.16,-1.81 -3.66,-0.38 -7.19,-0.5 -10.46,-0.5 -13.41,0 -24.48,3.08 -33.27,9.21 -8.82,6.17 -15.78,15.53 -21.05,28.33 -3.29,8.47 -5.64,20.77 -6.96,36.65 -1.44,15.91 -2.11,41.53 -2.11,77.15l0 136.99 -87.01 0z"/>
   <path id="_5" class="fil3" d="M2299.48 5773.56c0,37.28 4.55,65.98 13.51,85.98 9.05,20.12 21.78,30.13 38.3,30.13 16.69,0 29.61,-10.13 38.66,-30.25 9.12,-20.11 13.67,-48.82 13.67,-85.86 0,-36.79 -4.55,-65.24 -13.67,-85.23 -9.05,-20.12 -21.97,-30.11 -38.66,-30.11 -16.68,0 -29.49,9.99 -38.4,29.87 -8.95,19.85 -13.41,48.44 -13.41,85.47zm-89.51 -0.26c0,-68.29 12.48,-121.74 37.54,-160.32 24.99,-38.57 59.61,-57.8 103.78,-57.8 44.37,0 79.08,19.23 104.21,57.8 25.08,38.58 37.66,92.03 37.66,160.32 0,68.44 -12.58,121.89 -37.66,160.58 -25.13,38.69 -59.84,58.04 -104.21,58.04 -44.52,0 -79.14,-19.23 -104.04,-57.8 -24.89,-38.58 -37.28,-92.15 -37.28,-160.82z"/>
   <polygon id="_6" class="fil3" points="2538.94,5978.08 2538.94,5425.26 2626.46,5425.26 2626.46,5978.08 "/>
   <path class="fil3" d="M2923.36 5762.01l75.85 0 -38.61 -190.53 -37.24 190.53zm-8.28 -336.75l97.08 0 122.6 552.82 -95.48 0 -21.16 -101.5 -115.99 0 -19.79 101.5 -92.19 0 124.93 -552.82z"/>
   <path id="_1_0" class="fil3" d="M3401.55 5826.6c-4.27,51.9 -17.29,92.29 -39.17,121.11 -21.97,28.95 -50.51,43.44 -85.83,43.44 -38.12,0 -68.86,-19.47 -92.11,-58.43 -23.25,-38.84 -34.8,-90.36 -34.8,-154.42 0,-69.2 11.74,-123.66 35.29,-163.39 23.57,-39.85 55.59,-59.73 96.06,-59.73 35.15,0 63.46,14.1 84.92,42.31 21.42,28.06 33.48,67.02 36.13,116.85l-84.46 0c-2.35,-18.96 -6.69,-33.18 -12.95,-42.66 -6.29,-9.49 -14.41,-14.23 -24.29,-14.23 -14.48,0 -25.43,9.87 -32.97,29.72 -7.57,19.76 -11.35,48.83 -11.35,87.16 0,37.54 3.53,65.48 10.7,83.94 7.14,18.31 18.09,27.55 32.64,27.55 11.02,0 19.79,-4.89 26.31,-14.75 6.52,-9.72 11.03,-24.59 13.37,-44.47l82.51 0z"/>
   <path id="_2_1" class="fil3" d="M3680.59 5826.6c-4.25,51.9 -17.27,92.29 -39.17,121.11 -21.95,28.95 -50.51,43.44 -85.83,43.44 -38.12,0 -68.84,-19.47 -92.09,-58.43 -23.25,-38.84 -34.83,-90.36 -34.83,-154.42 0,-69.2 11.74,-123.66 35.32,-163.39 23.57,-39.85 55.57,-59.73 96.03,-59.73 35.16,0 63.46,14.1 84.95,42.31 21.39,28.06 33.46,67.02 36.1,116.85l-84.43 0c-2.35,-18.96 -6.68,-33.18 -12.97,-42.66 -6.27,-9.49 -14.39,-14.23 -24.3,-14.23 -14.45,0 -25.4,9.87 -32.97,29.72 -7.56,19.76 -11.34,48.83 -11.34,87.16 0,37.54 3.52,65.48 10.69,83.94 7.17,18.31 18.1,27.55 32.65,27.55 11.04,0 19.79,-4.89 26.33,-14.75 6.5,-9.72 11,-24.59 13.35,-44.47l82.51 0z"/>
   <path id="_3_2" class="fil3" d="M3791.31 5730.49l95.46 -0.39c-0.33,-26.13 -4.67,-46.63 -13.11,-61.36 -8.36,-14.75 -19.86,-22.04 -34.51,-22.04 -13.85,0 -24.85,7.17 -33.15,21.66 -8.26,14.46 -13.18,35.22 -14.69,62.13zm91.19 119.19l80.6 0c-7.56,44.73 -22.36,79.46 -44.38,103.93 -22.05,24.47 -49.47,36.77 -82.14,36.77 -39.75,0 -71.12,-19.23 -94.18,-57.66 -23.11,-38.45 -34.67,-90.75 -34.67,-157.11 0,-67.52 11.65,-121.09 34.9,-160.58 23.25,-39.35 54.53,-59.08 93.95,-59.08 40.7,0 72.62,20 95.87,60.12 23.25,40.11 34.92,95.45 34.92,166.09 0,6.51 0,11.52 -0.09,14.84 -0.07,3.35 -0.23,6.28 -0.39,8.86l-173.26 0c0,28.71 3.85,50.6 11.65,65.74 7.82,15.11 19.23,22.67 34.36,22.67 11.09,0 20.33,-3.71 27.59,-11.26 7.24,-7.44 12.3,-18.61 15.27,-33.33z"/>
   <path id="_4_3" class="fil3" d="M3998.35 5853.53l83.97 0c0.97,17.92 5.15,31.37 12.62,40.35 7.47,8.98 18.26,13.45 32.42,13.45 11.83,0 21.06,-3.58 27.84,-10.87 6.75,-7.17 10.14,-16.92 10.14,-29.21 0,-15.65 -13.2,-28.98 -39.68,-39.73 -14.15,-5.66 -25.57,-10.79 -34.17,-15.26 -32.09,-16.8 -54.07,-34.34 -65.81,-52.41 -11.81,-18.19 -17.7,-42.04 -17.7,-71.64 0,-41.39 9.91,-73.8 29.7,-97.51 19.77,-23.73 47.05,-35.52 81.79,-35.52 37.1,0 65.66,10.13 85.76,30.25 20.09,20.27 31.44,50.37 33.94,90.48l-80.61 0c-1.67,-13.83 -5.61,-24.08 -11.74,-30.75 -6.1,-6.67 -14.61,-10.01 -25.47,-10.01 -10,0 -17.8,3.08 -23.18,9.24 -5.41,6.13 -8.12,14.87 -8.12,26.13 0,16.03 13.66,29.98 40.95,41.77 6.57,2.82 11.72,5.01 15.36,6.82 25.41,11.76 43.09,20.5 53,26.4 9.88,5.86 17.05,11.52 21.39,16.77 9.26,10.75 16.1,23.19 20.51,37.53 4.43,14.26 6.59,30.91 6.59,49.87 0,44.35 -10.84,78.92 -32.48,103.93 -21.72,24.98 -51.96,37.54 -90.75,37.54 -38.03,0 -68.03,-12.03 -90.01,-36 -21.95,-23.97 -34.1,-57.92 -36.26,-101.62z"/>
   <path id="_5_4" class="fil3" d="M4281.54 5853.53l83.99 0c0.98,17.92 5.15,31.37 12.63,40.35 7.47,8.98 18.26,13.45 32.41,13.45 11.83,0 21.07,-3.58 27.84,-10.87 6.76,-7.17 10.14,-16.92 10.14,-29.21 0,-15.65 -13.2,-28.98 -39.67,-39.73 -14.16,-5.66 -25.57,-10.79 -34.18,-15.26 -32.09,-16.8 -54.06,-34.34 -65.8,-52.41 -11.81,-18.19 -17.71,-42.04 -17.71,-71.64 0,-41.39 9.91,-73.8 29.7,-97.51 19.77,-23.73 47.06,-35.52 81.79,-35.52 37.08,0 65.67,10.13 85.76,30.25 20.09,20.27 31.44,50.37 33.95,90.48l-80.61 0c-1.67,-13.83 -5.62,-24.08 -11.74,-30.75 -6.1,-6.67 -14.64,-10.01 -25.5,-10.01 -9.98,0 -17.78,3.08 -23.16,9.24 -5.4,6.13 -8.12,14.87 -8.12,26.13 0,16.03 13.67,29.98 40.93,41.77 6.59,2.82 11.74,5.01 15.36,6.82 25.43,11.76 43.11,20.5 53.02,26.4 9.88,5.86 17.05,11.52 21.39,16.77 9.26,10.75 16.08,23.19 20.51,37.53 4.44,14.26 6.59,30.91 6.59,49.87 0,44.35 -10.83,78.92 -32.48,103.93 -21.72,24.98 -51.98,37.54 -90.75,37.54 -38.05,0 -68.03,-12.03 -90,-36 -21.95,-23.97 -34.11,-57.92 -36.29,-101.62z"/>
   <path class="fil4" d="M1023.49 6395l41.55 0c-0.53,51.64 -10.34,91.1 -29.69,118.36 -19.29,27.29 -47.13,40.92 -83.44,40.92 -38.8,0 -67.5,-17.34 -86.18,-52 -18.63,-34.6 -27.96,-88.14 -27.96,-160.4 0,-75.49 9.26,-130.13 27.71,-163.9 18.54,-33.78 48.4,-50.66 89.58,-50.66 34.3,0 60.82,10.75 79.52,32.32 18.61,21.6 27.94,52.29 27.94,92.11l0 5.07 -40.54 0c0,-27.91 -5.99,-49.75 -18.1,-65.57 -12.09,-15.88 -28.54,-23.82 -49.4,-23.82 -25.61,0 -44.04,13.45 -55.31,40.35 -11.26,26.91 -16.82,71.61 -16.82,134.01 0,61.06 5.73,104.49 17.35,130.42 11.58,25.8 30.68,38.72 57.22,38.72 21.44,0 37.77,-9.48 49.31,-28.44 11.5,-18.96 17.26,-46.04 17.26,-81.18l0 -6.31z"/>
   <path id="_1_5" class="fil4" d="M1116.6 6392.36c0,-54.63 8.08,-95.07 24.29,-121.44 16.25,-26.37 41.03,-39.55 74.51,-39.55 33.85,0 58.8,12.97 74.83,39.08 16.1,26.1 24.08,66.75 24.08,121.91 0,55.17 -7.98,95.73 -23.92,121.56 -16.03,25.81 -40.98,38.73 -74.99,38.73 -34.29,0 -59.26,-12.8 -75.11,-38.46 -15.78,-25.66 -23.69,-66.28 -23.69,-121.83zm42.05 -0.09c0,45.51 4.33,77.57 12.92,96.17 8.68,18.61 23.2,27.91 43.83,27.91 20.16,0 34.59,-9.48 43.27,-28.44 8.75,-18.96 13.11,-50.84 13.11,-95.64 0,-45.15 -4.36,-77.03 -13.11,-95.63 -8.68,-18.61 -23.11,-27.91 -43.27,-27.91 -20.44,0 -34.99,9.21 -43.67,27.64 -8.75,18.43 -13.08,50.4 -13.08,95.9z"/>
   <path id="_2_6" class="fil4" d="M1366.29 6544.53l0 -304.51 36.87 0 0 37.74c6.84,-14.72 16.12,-25.83 27.89,-33.12 11.74,-7.41 25.91,-11.11 42.78,-11.11 24.78,0 42.39,6.76 52.91,20.3 10.51,13.56 15.77,36.94 15.77,70l0 220.7 -39.56 0 0 -223.87c0,-16.62 -3.25,-28.88 -9.77,-37.03 -6.47,-8.12 -16.49,-12.18 -29.86,-12.18 -17.59,0 -31.6,5.96 -41.95,17.96 -10.35,12.03 -15.52,28.26 -15.52,48.68l0 206.44 -39.56 0z"/>
   <path id="_3_7" class="fil4" d="M1646.69 6481.6c0,12.71 2.07,21.04 6.34,25.01 4.24,3.97 14.43,5.95 30.37,5.95 2.18,0 3.92,-0.09 5.24,-0.18 1.42,-0.09 2.6,-0.17 3.6,-0.35l0.26 37.18c-2.44,0.21 -5.78,0.3 -9.84,0.47 -10.12,0.54 -16.55,0.8 -19.35,0.8 -18.61,0 -32.46,-3.97 -41.56,-11.99 -9.09,-7.94 -13.6,-20.06 -13.6,-36.21l0 -227.03 -39.05 0 0 -35.23 39.05 0 0 -81.27 38.54 0 0 81.27 45.81 0 0 35.23 -45.81 0 0 206.35z"/>
   <path id="_4_8" class="fil4" d="M1724.86 6544.53l0 -304.51 36.39 0 0 49.77c5.66,-17.8 14.34,-31.7 25.84,-41.74 11.44,-10.02 24.62,-15.08 39.57,-15.08 4.31,0 7.74,0.09 10.09,0.29 2.41,0.18 4.66,0.45 6.77,0.8l0 45.42c-2.11,-1.27 -4.45,-2.16 -7,-2.78 -2.53,-0.65 -5.39,-0.92 -8.45,-0.92 -20.28,0 -35.96,7.23 -47.24,21.69 -11.25,14.42 -16.92,34.66 -16.92,60.58l0 186.48 -39.05 0z"/>
   <path id="_5_9" class="fil4" d="M1862.53 6392.36c0,-54.63 8.07,-95.07 24.29,-121.44 16.27,-26.37 41.02,-39.55 74.5,-39.55 33.86,0 58.8,12.97 74.83,39.08 16.11,26.1 24.09,66.75 24.09,121.91 0,55.17 -7.98,95.73 -23.92,121.56 -16.04,25.81 -40.98,38.73 -75,38.73 -34.29,0 -59.26,-12.8 -75.1,-38.46 -15.78,-25.66 -23.69,-66.28 -23.69,-121.83zm42.04 -0.09c0,45.51 4.34,77.57 12.92,96.17 8.68,18.61 23.23,27.91 43.83,27.91 20.17,0 34.6,-9.48 43.28,-28.44 8.75,-18.96 13.11,-50.84 13.11,-95.64 0,-45.15 -4.36,-77.03 -13.11,-95.63 -8.68,-18.61 -23.11,-27.91 -43.28,-27.91 -20.44,0 -34.99,9.21 -43.66,27.64 -8.75,18.43 -13.09,50.4 -13.09,95.9z"/>
   <polygon id="_6_10" class="fil4" points="2111.73,6544.53 2111.73,6137.06 2150.75,6137.06 2150.75,6544.53 "/>
   <path id="_7" class="fil4" d="M2242.77 6359.77l95.62 0 0 -8.23c0,-28.18 -3.75,-49.39 -11.37,-63.55 -7.56,-14.28 -18.91,-21.43 -34.1,-21.43 -16.94,0 -29.52,7.68 -37.8,22.94 -8.26,15.37 -12.35,38.75 -12.35,70.27zm96.11 81.8l38.54 0c-0.32,35.94 -7.91,63.5 -22.85,82.55 -14.83,19.05 -36.11,28.53 -63.65,28.53 -30.3,0 -52.65,-12.8 -67.08,-38.37 -14.43,-25.57 -21.6,-65.12 -21.6,-118.66 0,-56.79 7.17,-98.33 21.6,-124.7 14.43,-26.37 37.13,-39.55 68.08,-39.55 29.19,0 50.91,11.17 65.18,33.57 14.24,22.48 21.34,56.61 21.34,102.51 0,7.23 0,12.74 -0.09,16.44 -0.07,3.7 -0.23,7.02 -0.42,10.01l-135.16 0.27 0 13.45c0,38.01 4.09,65.74 12.28,83.17 8.1,17.45 21.09,26.1 38.86,26.1 13.86,0 24.81,-6.58 32.88,-19.68 8.01,-13.09 12.09,-30.99 12.09,-53.56l0 -2.08z"/>
   <path id="_8" class="fil4" d="M2697.48 6390.02c0,-44.44 -3.99,-75.4 -12.11,-92.94 -8.08,-17.42 -21.74,-26.16 -41.21,-26.16 -18.35,0 -31.95,9.48 -40.79,28.35 -8.75,18.88 -13.18,48.03 -13.18,87.58 0,44.09 4.18,76.06 12.6,95.91 8.33,19.88 21.7,29.8 39.98,29.8 19.35,0 33.36,-9.39 41.88,-28.09 8.59,-18.69 12.83,-50.21 12.83,-94.45zm36.87 154.51l-36.87 0 0 -38.28c-3.6,13.36 -10.93,24 -22.04,32.15 -11,8.03 -24.09,12.08 -39.03,12.08 -29.05,0 -51.14,-14.34 -66.41,-42.98 -15.26,-28.62 -22.85,-70.25 -22.85,-124.88 0,-47.41 7.66,-84.18 22.95,-110.37 15.33,-26.19 36.7,-39.28 64.06,-39.28 14.85,0 27.96,3.61 39.28,10.84 11.28,7.14 18.45,16.36 21.37,27.64l0 -134.39 39.54 0 0 407.47z"/>
   <path id="_9" class="fil4" d="M2825.96 6359.77l95.61 0 0 -8.23c0,-28.18 -3.75,-49.39 -11.37,-63.55 -7.58,-14.28 -18.91,-21.43 -34.1,-21.43 -16.94,0 -29.54,7.68 -37.8,22.94 -8.26,15.37 -12.34,38.75 -12.34,70.27zm96.1 81.8l38.54 0c-0.32,35.94 -7.91,63.5 -22.85,82.55 -14.83,19.05 -36.11,28.53 -63.65,28.53 -30.3,0 -52.65,-12.8 -67.08,-38.37 -14.43,-25.57 -21.6,-65.12 -21.6,-118.66 0,-56.79 7.17,-98.33 21.6,-124.7 14.43,-26.37 37.1,-39.55 68.08,-39.55 29.19,0 50.91,11.17 65.15,33.57 14.27,22.48 21.37,56.61 21.37,102.51 0,7.23 0,12.74 -0.09,16.44 -0.09,3.7 -0.26,7.02 -0.42,10.01l-135.15 0.27 0 13.45c0,38.01 4.08,65.74 12.27,83.17 8.1,17.45 21.09,26.1 38.86,26.1 13.86,0 24.81,-6.58 32.88,-19.68 8.01,-13.09 12.09,-30.99 12.09,-53.56l0 -2.08z"/>
   <path id="_10" class="fil4" d="M3195.23 6385.79l100.21 0 -50.07 -213.5 -50.14 213.5zm-79.42 158.74l102.6 -407.47 53.57 0 104.11 407.47 -42.53 0 -28.54 -117.56 -119.28 0 -27.38 117.56 -42.55 0z"/>
   <path id="_11" class="fil4" d="M3549.72 6437.25l38.54 -0.27c0,36.83 -7.86,65.39 -23.46,85.51 -15.61,20.14 -37.7,30.16 -66.15,30.16 -31.3,0 -54.48,-13.28 -69.51,-39.91 -15.09,-26.64 -22.6,-67.55 -22.6,-122.72 0,-53 7.86,-92.64 23.46,-118.83 15.68,-26.19 39.35,-39.29 71.16,-39.29 26.29,0 46.96,8.65 62.21,26.1 15.29,17.33 22.9,40.98 22.9,70.96l0 6.43 -38.59 0c-0.81,-21.42 -4.97,-37.66 -12.67,-48.86 -7.66,-11.11 -18.49,-16.71 -32.46,-16.71 -19.19,0 -32.92,9.22 -41.12,27.65 -8.26,18.51 -12.34,49.83 -12.34,94.18 0,44.8 4.18,76.47 12.44,95.17 8.35,18.6 22.2,27.9 41.55,27.9 14.67,0 25.94,-6.57 33.93,-19.85 7.93,-13.27 12.18,-32.53 12.71,-57.62z"/>
   <path id="_12" class="fil4" d="M3676.34 6359.77l95.6 0 0 -8.23c0,-28.18 -3.74,-49.39 -11.35,-63.55 -7.59,-14.28 -18.91,-21.43 -34.11,-21.43 -16.94,0 -29.54,7.68 -37.8,22.94 -8.26,15.37 -12.34,38.75 -12.34,70.27zm96.11 81.8l38.54 0c-0.35,35.94 -7.92,63.5 -22.86,82.55 -14.85,19.05 -36.1,28.53 -63.64,28.53 -30.31,0 -52.67,-12.8 -67.08,-38.37 -14.44,-25.57 -21.61,-65.12 -21.61,-118.66 0,-56.79 7.17,-98.33 21.61,-124.7 14.41,-26.37 37.1,-39.55 68.05,-39.55 29.21,0 50.93,11.17 65.18,33.57 14.27,22.48 21.34,56.61 21.34,102.51 0,7.23 0,12.74 -0.07,16.44 -0.09,3.7 -0.25,7.02 -0.41,10.01l-135.16 0.27 0 13.45c0,38.01 4.08,65.74 12.25,83.17 8.12,17.45 21.12,26.1 38.87,26.1 13.85,0 24.8,-6.58 32.87,-19.68 8.03,-13.09 12.12,-30.99 12.12,-53.56l0 -2.08z"/>
   <path id="_13" class="fil4" d="M3856.56 6452.95l39.02 0c0,0.39 -0.09,0.92 -0.25,1.63 -0.49,3.88 -0.74,6.79 -0.74,8.68 0,16.62 4.33,29.24 13.08,37.92 8.77,8.69 21.46,13.01 38.05,13.01 15.2,0 27.13,-4.41 35.9,-13.27 8.75,-8.77 13.09,-20.77 13.09,-35.94 0,-24.03 -17.01,-42.46 -51.14,-55.11l-0.75 -0.26c-34.29,-12.92 -56.49,-25.63 -66.59,-38.37 -10.09,-12.65 -15.17,-31.08 -15.17,-55.26 0,-26.66 7.26,-47.43 21.69,-62.33 14.41,-14.91 34.53,-22.28 60.33,-22.28 27.33,0 47.94,7.11 61.88,21.39 13.85,14.25 20.77,35.4 20.77,63.22l0 4.24 -37.52 0c-0.86,-18.34 -4.69,-31.61 -11.53,-40 -6.75,-8.41 -17.43,-12.56 -31.93,-12.56 -15.29,0 -26.8,3.88 -34.55,11.73 -7.77,7.85 -11.6,19.5 -11.6,35.05 0,6.85 1,13.01 3.09,18.52 1.99,5.39 5.01,9.84 8.84,13.18 7.17,6.67 21.44,13.72 42.81,21.13 11.41,3.88 20.16,7.14 26.45,9.83 19.35,8.03 33.2,18.34 41.53,30.79 8.28,12.38 12.44,28.83 12.44,49.33 0,30.51 -8.1,53.98 -24.37,70.6 -16.17,16.53 -39.3,24.83 -69.26,24.83 -27.52,0 -48.38,-7.85 -62.48,-23.65 -14.09,-15.82 -21.09,-39.01 -21.09,-69.71l0 -6.34z"/>
   <path id="_14" class="fil4" d="M4078.72 6452.95l39.03 0c0,0.39 -0.07,0.92 -0.23,1.63 -0.51,3.88 -0.74,6.79 -0.74,8.68 0,16.62 4.31,29.24 13.08,37.92 8.75,8.69 21.47,13.01 38.03,13.01 15.2,0 27.13,-4.41 35.9,-13.27 8.74,-8.77 13.08,-20.77 13.08,-35.94 0,-24.03 -17,-42.46 -51.14,-55.11l-0.74 -0.26c-34.29,-12.92 -56.47,-25.63 -66.59,-38.37 -10.09,-12.65 -15.15,-31.08 -15.15,-55.26 0,-26.66 7.24,-47.43 21.67,-62.33 14.43,-14.91 34.55,-22.28 60.33,-22.28 27.33,0 47.96,7.11 61.88,21.39 13.85,14.25 20.79,35.4 20.79,63.22l0 4.24 -37.54 0c-0.84,-18.34 -4.67,-31.61 -11.51,-40 -6.78,-8.41 -17.45,-12.56 -31.95,-12.56 -15.27,0 -26.8,3.88 -34.55,11.73 -7.77,7.85 -11.6,19.5 -11.6,35.05 0,6.85 1.02,13.01 3.08,18.52 2,5.39 5.01,9.84 8.84,13.18 7.17,6.67 21.44,13.72 42.81,21.13 11.42,3.88 20.19,7.14 26.45,9.83 19.35,8.03 33.21,18.34 41.56,30.79 8.26,12.38 12.41,28.83 12.41,49.33 0,30.51 -8.09,53.98 -24.36,70.6 -16.17,16.53 -39.3,24.83 -69.24,24.83 -27.54,0 -48.4,-7.85 -62.48,-23.65 -14.11,-15.82 -21.12,-39.01 -21.12,-69.71l0 -6.34z"/>
   <path id="_15" class="fil4" d="M4300.4 6392.36c0,-54.63 8.08,-95.07 24.3,-121.44 16.24,-26.37 41.02,-39.55 74.5,-39.55 33.85,0 58.77,12.97 74.83,39.08 16.08,26.1 24.08,66.75 24.08,121.91 0,55.17 -8,95.73 -23.92,121.56 -16.03,25.81 -40.97,38.73 -74.99,38.73 -34.32,0 -59.26,-12.8 -75.11,-38.46 -15.77,-25.66 -23.69,-66.28 -23.69,-121.83zm42.05 -0.09c0,45.51 4.31,77.57 12.92,96.17 8.68,18.61 23.2,27.91 43.83,27.91 20.16,0 34.6,-9.48 43.27,-28.44 8.75,-18.96 13.11,-50.84 13.11,-95.64 0,-45.15 -4.36,-77.03 -13.11,-95.63 -8.67,-18.61 -23.11,-27.91 -43.27,-27.91 -20.46,0 -34.99,9.21 -43.67,27.64 -8.77,18.43 -13.08,50.4 -13.08,95.9z"/>
   <path id="_16" class="fil4" d="M4720.28 6505.51l54.51 0c17.58,0 31.2,-1.9 40.95,-5.78 9.67,-3.88 17.26,-10.19 22.78,-18.78 8.84,-13.9 15.18,-31.32 19.1,-52.09 3.92,-20.79 5.85,-49.95 5.85,-87.52 0,-65.74 -6.36,-109.62 -19.03,-131.66 -12.76,-22.04 -36.45,-33.06 -71.16,-33.06l-53 0 0 328.89zm-42.04 39.02l0 -407.47 106.57 0c42.69,0 74.13,15.47 94.41,46.34 20.21,30.87 30.28,78.84 30.28,143.96 0,45.77 -3.5,83.61 -10.42,113.33 -6.93,29.71 -17.77,53.27 -32.6,70.78 -10.11,12.02 -21.55,20.5 -34.22,25.56 -12.76,4.98 -31.6,7.5 -56.73,7.5l-97.29 0z"/>
   <path id="_17" class="fil4" d="M4965.58 6192.35l0 -55.29 40.54 0 0 55.29 -40.54 0zm0 352.18l0 -304.51 40.54 0 0 304.51 -40.54 0z"/>
   <path id="_18" class="fil4" d="M5099.81 6392.9c0,42.54 4.08,72.97 12.35,91.49 8.28,18.42 21.6,27.64 40.21,27.64 19.44,0 33.29,-9.39 41.64,-28.09 8.26,-18.69 12.42,-50.39 12.42,-95.01 0,-41.99 -4.32,-72.41 -13.09,-91.29 -8.68,-18.87 -22.69,-28.35 -41.95,-28.35 -18.05,0 -31.21,9.57 -39.3,28.8 -8.2,19.23 -12.28,50.84 -12.28,94.81zm-33.04 179.81l39.05 0.26c0.84,12.3 5.08,21.51 12.86,27.73 7.74,6.22 18.86,9.4 33.2,9.4 19.28,0 33.11,-6.79 41.72,-20.33 8.58,-13.63 12.83,-35.58 12.83,-65.83 0,-0.89 -0.07,-3.08 -0.26,-6.58 -0.16,-3.52 -0.23,-6.78 -0.23,-9.6 -5.66,13.84 -13.78,24.21 -24.36,31.17 -10.51,6.96 -23.18,10.49 -38.22,10.49 -28.51,0 -49.81,-13.75 -63.9,-41.18 -14.11,-27.38 -21.18,-69.1 -21.18,-125 0,-49.92 7.33,-87.4 22.11,-112.62 14.76,-25.09 36.78,-37.65 66.15,-37.65 14.83,0 27.45,3.7 37.89,11.2 10.42,7.4 17.75,17.98 22,31.43l0 -35.58 38.05 0 0 290.53c0,37.36 -8.35,66.27 -24.94,86.51 -16.62,20.29 -40.12,30.42 -70.68,30.42 -24.11,0 -43.78,-6.87 -59.14,-20.5 -15.27,-13.63 -22.95,-31.17 -22.95,-52.47l0 -1.8z"/>
   <path id="_19" class="fil4" d="M5303.14 6192.35l0 -55.29 40.53 0 0 55.29 -40.53 0zm0 352.18l0 -304.51 40.53 0 0 304.51 -40.53 0z"/>
   <path id="_20" class="fil4" d="M5448.36 6481.6c0,12.71 2.09,21.04 6.36,25.01 4.25,3.97 14.41,5.95 30.35,5.95 2.18,0 3.95,-0.09 5.27,-0.18 1.41,-0.09 2.6,-0.17 3.57,-0.35l0.28 37.18c-2.44,0.21 -5.78,0.3 -9.86,0.47 -10.09,0.54 -16.52,0.8 -19.35,0.8 -18.61,0 -32.46,-3.97 -41.56,-11.99 -9.07,-7.94 -13.6,-20.06 -13.6,-36.21l0 -227.03 -39.02 0 0 -35.23 39.02 0 0 -81.27 38.54 0 0 81.27 45.83 0 0 35.23 -45.83 0 0 206.35z"/>
   <path id="_21" class="fil4" d="M5647.19 6380.28c-6.17,7.4 -19.95,15.16 -41.14,23.37 -1.74,0.74 -3.09,1.28 -3.92,1.63 -18.28,6.87 -30.21,14.64 -35.71,23.29 -5.59,8.68 -8.35,21.51 -8.35,38.48 0,15.17 3.11,26.91 9.37,35.23 6.15,8.3 14.92,12.44 26.1,12.44 16.34,0 29.38,-6.66 39.03,-20.14 9.77,-13.45 14.62,-31.41 14.62,-54.07l0 -60.23zm62.04 164.78c-4.89,0.92 -9.16,1.54 -12.83,1.99 -3.66,0.47 -7,0.74 -10.09,0.74 -11.09,0 -19.84,-3.79 -26.2,-11.38 -6.35,-7.58 -9.74,-18.34 -10.25,-32.35 -6.01,15.55 -14.76,27.37 -26.13,35.67 -11.41,8.24 -24.92,12.38 -40.6,12.38 -20.38,0 -36.22,-7.4 -47.59,-22.22 -11.33,-14.81 -16.99,-35.58 -16.99,-62.39 0,-26.19 5.25,-46.25 15.76,-59.97 10.51,-13.72 33.2,-26.99 68.17,-39.64l0.65 -0.27c28.7,-10.4 43.06,-22.57 43.06,-36.56l0 -27.99c0,-12.57 -3.27,-21.6 -9.86,-27.38 -6.66,-5.69 -17.17,-8.56 -31.69,-8.56 -14.02,0 -24.46,3.97 -31.31,11.91 -6.82,7.85 -10.25,20.06 -10.25,36.38l0 5.33 -37.03 0c0.48,-31.05 7.33,-53.74 20.53,-67.99 13.25,-14.28 34.11,-21.39 62.65,-21.39 26.68,0 46.2,6.57 58.56,19.67 12.28,13.18 18.43,33.95 18.43,62.31l0 178.09c0,7.94 1.34,13.63 3.92,17.06 2.6,3.44 6.84,5.16 12.78,5.16 1.07,0 2.9,-0.3 5.34,-0.83 0.32,0 0.65,-0.09 0.97,-0.27l0 32.5z"/>
   <polygon id="_22" class="fil4" points="5749.21,6544.53 5749.21,6137.06 5788.24,6137.06 5788.24,6544.53 "/>
  </g>
 </g>
</svg>
